<mxfile host="app.diagrams.net" modified="2021-08-25T14:42:43.152Z" agent="5.0 (Windows NT 10.0; Win64; x64) AppleWebKit/537.36 (KHTML, like Gecko) Chrome/92.0.4515.131 Safari/537.36 OPR/78.0.4093.153" etag="PTImb8RHUlRAs4nPd3p9" version="14.9.9" type="github">
  <diagram id="iu52rg2bMFQcI9aGM0fb" name="Page-1">
    <mxGraphModel dx="1888" dy="548" grid="1" gridSize="10" guides="1" tooltips="1" connect="1" arrows="1" fold="1" page="1" pageScale="1" pageWidth="850" pageHeight="1100" math="0" shadow="0">
      <root>
        <mxCell id="0" />
        <mxCell id="1" parent="0" />
        <mxCell id="l6OEePkHwcAdZu7ahC86-1" style="edgeStyle=orthogonalEdgeStyle;rounded=0;orthogonalLoop=1;jettySize=auto;html=1;endArrow=none;endFill=0;dashed=1;" parent="1" source="l6OEePkHwcAdZu7ahC86-12" edge="1">
          <mxGeometry relative="1" as="geometry">
            <mxPoint x="-690" y="510" as="targetPoint" />
            <mxPoint x="-690.5" y="-130.5" as="sourcePoint" />
            <Array as="points" />
          </mxGeometry>
        </mxCell>
        <mxCell id="l6OEePkHwcAdZu7ahC86-2" value="" style="shape=umlActor;verticalLabelPosition=bottom;verticalAlign=top;html=1;outlineConnect=0;" parent="1" vertex="1">
          <mxGeometry x="-700" y="60" width="20" height="40" as="geometry" />
        </mxCell>
        <mxCell id="l6OEePkHwcAdZu7ahC86-4" value=":Timetable" style="rounded=0;whiteSpace=wrap;html=1;" parent="1" vertex="1">
          <mxGeometry x="-590" y="60" width="100" height="40" as="geometry" />
        </mxCell>
        <mxCell id="l6OEePkHwcAdZu7ahC86-5" style="edgeStyle=orthogonalEdgeStyle;rounded=0;orthogonalLoop=1;jettySize=auto;html=1;endArrow=none;endFill=0;dashed=1;" parent="1" source="l6OEePkHwcAdZu7ahC86-6" edge="1">
          <mxGeometry relative="1" as="geometry">
            <mxPoint x="-390" y="530" as="targetPoint" />
          </mxGeometry>
        </mxCell>
        <mxCell id="l6OEePkHwcAdZu7ahC86-6" value=": Database" style="rounded=0;whiteSpace=wrap;html=1;" parent="1" vertex="1">
          <mxGeometry x="-440" y="60" width="100" height="40" as="geometry" />
        </mxCell>
        <mxCell id="l6OEePkHwcAdZu7ahC86-7" value="" style="endArrow=classic;html=1;" parent="1" edge="1">
          <mxGeometry width="50" height="50" relative="1" as="geometry">
            <mxPoint x="-690" y="150" as="sourcePoint" />
            <mxPoint x="-547" y="150" as="targetPoint" />
          </mxGeometry>
        </mxCell>
        <mxCell id="l6OEePkHwcAdZu7ahC86-8" value="clicks Add button" style="text;html=1;align=center;verticalAlign=middle;resizable=0;points=[];autosize=1;strokeColor=none;" parent="1" vertex="1">
          <mxGeometry x="-670" y="130" width="110" height="20" as="geometry" />
        </mxCell>
        <mxCell id="l6OEePkHwcAdZu7ahC86-9" value="" style="html=1;points=[];perimeter=orthogonalPerimeter;fillColor=#ffffff;" parent="1" vertex="1">
          <mxGeometry x="-695" y="130" width="10" height="120" as="geometry" />
        </mxCell>
        <mxCell id="l6OEePkHwcAdZu7ahC86-11" value="" style="html=1;points=[];perimeter=orthogonalPerimeter;fillColor=#ffffff;" parent="1" vertex="1">
          <mxGeometry x="-395" y="150" width="10" height="340" as="geometry" />
        </mxCell>
        <mxCell id="l6OEePkHwcAdZu7ahC86-12" value="User" style="text;html=1;align=center;verticalAlign=middle;resizable=0;points=[];autosize=1;strokeColor=none;" parent="1" vertex="1">
          <mxGeometry x="-710" y="100" width="40" height="20" as="geometry" />
        </mxCell>
        <mxCell id="l6OEePkHwcAdZu7ahC86-15" value="" style="endArrow=classic;html=1;" parent="1" edge="1">
          <mxGeometry width="50" height="50" relative="1" as="geometry">
            <mxPoint x="-685" y="240" as="sourcePoint" />
            <mxPoint x="-544" y="240" as="targetPoint" />
          </mxGeometry>
        </mxCell>
        <mxCell id="l6OEePkHwcAdZu7ahC86-19" value="" style="endArrow=none;html=1;entryX=-0.02;entryY=0.222;entryDx=0;entryDy=0;entryPerimeter=0;startArrow=classic;startFill=1;endFill=0;dashed=1;" parent="1" edge="1">
          <mxGeometry width="50" height="50" relative="1" as="geometry">
            <mxPoint x="-685" y="190.02" as="sourcePoint" />
            <mxPoint x="-545.2" y="190.00000000000003" as="targetPoint" />
          </mxGeometry>
        </mxCell>
        <mxCell id="l6OEePkHwcAdZu7ahC86-20" value="" style="endArrow=none;html=1;entryX=-0.02;entryY=0.222;entryDx=0;entryDy=0;entryPerimeter=0;startArrow=classic;startFill=1;endFill=0;dashed=1;" parent="1" edge="1">
          <mxGeometry width="50" height="50" relative="1" as="geometry">
            <mxPoint x="-339.99999999999994" y="330.02" as="sourcePoint" />
            <mxPoint x="-200.20000000000005" y="330" as="targetPoint" />
          </mxGeometry>
        </mxCell>
        <mxCell id="l6OEePkHwcAdZu7ahC86-24" value="" style="edgeStyle=orthogonalEdgeStyle;rounded=0;orthogonalLoop=1;jettySize=auto;html=1;endArrow=none;endFill=0;dashed=1;" parent="1" source="l6OEePkHwcAdZu7ahC86-4" edge="1">
          <mxGeometry relative="1" as="geometry">
            <mxPoint x="-540" y="510" as="targetPoint" />
            <mxPoint x="-540" y="100" as="sourcePoint" />
            <Array as="points">
              <mxPoint x="-540" y="190" />
              <mxPoint x="-540" y="190" />
            </Array>
          </mxGeometry>
        </mxCell>
        <mxCell id="l6OEePkHwcAdZu7ahC86-10" value="" style="html=1;points=[];perimeter=orthogonalPerimeter;fillColor=#FFFFFF;" parent="1" vertex="1">
          <mxGeometry x="-545" y="130" width="10" height="120" as="geometry" />
        </mxCell>
        <mxCell id="6Z9NZlcsInPV9KQ9pKIT-1" value="display form" style="text;html=1;align=center;verticalAlign=middle;resizable=0;points=[];autosize=1;strokeColor=none;" vertex="1" parent="1">
          <mxGeometry x="-655" y="170" width="80" height="20" as="geometry" />
        </mxCell>
        <mxCell id="6Z9NZlcsInPV9KQ9pKIT-2" value="enter subject, &lt;br&gt;time allocation&amp;nbsp;" style="text;html=1;align=center;verticalAlign=middle;resizable=0;points=[];autosize=1;strokeColor=none;" vertex="1" parent="1">
          <mxGeometry x="-670" y="205" width="100" height="30" as="geometry" />
        </mxCell>
        <mxCell id="6Z9NZlcsInPV9KQ9pKIT-3" value="" style="endArrow=classic;html=1;" edge="1" parent="1">
          <mxGeometry width="50" height="50" relative="1" as="geometry">
            <mxPoint x="-685" y="280" as="sourcePoint" />
            <mxPoint x="-544" y="280" as="targetPoint" />
          </mxGeometry>
        </mxCell>
        <mxCell id="6Z9NZlcsInPV9KQ9pKIT-4" value="" style="endArrow=classic;html=1;" edge="1" parent="1">
          <mxGeometry width="50" height="50" relative="1" as="geometry">
            <mxPoint x="-536" y="310" as="sourcePoint" />
            <mxPoint x="-395" y="310" as="targetPoint" />
          </mxGeometry>
        </mxCell>
        <mxCell id="6Z9NZlcsInPV9KQ9pKIT-5" value="" style="endArrow=classic;html=1;" edge="1" parent="1">
          <mxGeometry width="50" height="50" relative="1" as="geometry">
            <mxPoint x="-535" y="249.5" as="sourcePoint" />
            <mxPoint x="-394" y="249.5" as="targetPoint" />
          </mxGeometry>
        </mxCell>
        <mxCell id="6Z9NZlcsInPV9KQ9pKIT-6" value="" style="endArrow=classic;html=1;" edge="1" parent="1">
          <mxGeometry width="50" height="50" relative="1" as="geometry">
            <mxPoint x="-685" y="439" as="sourcePoint" />
            <mxPoint x="-544" y="439" as="targetPoint" />
          </mxGeometry>
        </mxCell>
        <mxCell id="6Z9NZlcsInPV9KQ9pKIT-7" value="" style="endArrow=classic;html=1;" edge="1" parent="1">
          <mxGeometry width="50" height="50" relative="1" as="geometry">
            <mxPoint x="-536" y="480" as="sourcePoint" />
            <mxPoint x="-395" y="480" as="targetPoint" />
          </mxGeometry>
        </mxCell>
        <mxCell id="6Z9NZlcsInPV9KQ9pKIT-8" value="" style="endArrow=classic;html=1;" edge="1" parent="1">
          <mxGeometry width="50" height="50" relative="1" as="geometry">
            <mxPoint x="-535" y="365" as="sourcePoint" />
            <mxPoint x="-394" y="365" as="targetPoint" />
          </mxGeometry>
        </mxCell>
        <mxCell id="6Z9NZlcsInPV9KQ9pKIT-12" value="" style="endArrow=none;html=1;entryX=-0.02;entryY=0.222;entryDx=0;entryDy=0;entryPerimeter=0;startArrow=classic;startFill=1;endFill=0;dashed=1;" edge="1" parent="1">
          <mxGeometry width="50" height="50" relative="1" as="geometry">
            <mxPoint x="-330" y="340.02" as="sourcePoint" />
            <mxPoint x="-190.20000000000005" y="340" as="targetPoint" />
          </mxGeometry>
        </mxCell>
        <mxCell id="6Z9NZlcsInPV9KQ9pKIT-13" value="" style="endArrow=none;html=1;entryX=-0.02;entryY=0.222;entryDx=0;entryDy=0;entryPerimeter=0;startArrow=classic;startFill=1;endFill=0;dashed=1;" edge="1" parent="1">
          <mxGeometry width="50" height="50" relative="1" as="geometry">
            <mxPoint x="-320" y="350.02" as="sourcePoint" />
            <mxPoint x="-180.20000000000005" y="350" as="targetPoint" />
          </mxGeometry>
        </mxCell>
        <mxCell id="6Z9NZlcsInPV9KQ9pKIT-14" value="" style="endArrow=none;html=1;entryX=-0.02;entryY=0.222;entryDx=0;entryDy=0;entryPerimeter=0;startArrow=classic;startFill=1;endFill=0;dashed=1;" edge="1" parent="1">
          <mxGeometry width="50" height="50" relative="1" as="geometry">
            <mxPoint x="-310" y="360.02" as="sourcePoint" />
            <mxPoint x="-170.20000000000005" y="360" as="targetPoint" />
          </mxGeometry>
        </mxCell>
        <mxCell id="6Z9NZlcsInPV9KQ9pKIT-15" value="" style="endArrow=none;html=1;entryX=-0.02;entryY=0.222;entryDx=0;entryDy=0;entryPerimeter=0;startArrow=classic;startFill=1;endFill=0;dashed=1;" edge="1" parent="1">
          <mxGeometry width="50" height="50" relative="1" as="geometry">
            <mxPoint x="-300" y="370.02" as="sourcePoint" />
            <mxPoint x="-160.20000000000005" y="370" as="targetPoint" />
          </mxGeometry>
        </mxCell>
        <mxCell id="6Z9NZlcsInPV9KQ9pKIT-16" value="opt" style="shape=umlFrame;whiteSpace=wrap;html=1;fillColor=#FFFFFF;" vertex="1" parent="1">
          <mxGeometry x="-770" y="260" width="420" height="150" as="geometry" />
        </mxCell>
        <mxCell id="6Z9NZlcsInPV9KQ9pKIT-17" value="select priority level&amp;nbsp;" style="text;html=1;align=center;verticalAlign=middle;resizable=0;points=[];autosize=1;strokeColor=none;" vertex="1" parent="1">
          <mxGeometry x="-680" y="260" width="120" height="20" as="geometry" />
        </mxCell>
        <mxCell id="6Z9NZlcsInPV9KQ9pKIT-18" value="addToTimetable&lt;br&gt;(name, time)&lt;span style=&quot;color: rgba(0 , 0 , 0 , 0) ; font-family: monospace ; font-size: 0px&quot;&gt;%3CmxGraphModel%3E%3Croot%3E%3CmxCell%20id%3D%220%22%2F%3E%3CmxCell%20id%3D%221%22%20parent%3D%220%22%2F%3E%3CmxCell%20id%3D%222%22%20value%3D%22%22%20style%3D%22endArrow%3Dnone%3Bhtml%3D1%3BentryX%3D-0.02%3BentryY%3D0.222%3BentryDx%3D0%3BentryDy%3D0%3BentryPerimeter%3D0%3BstartArrow%3Dclassic%3BstartFill%3D1%3BendFill%3D0%3Bdashed%3D1%3B%22%20edge%3D%221%22%20parent%3D%221%22%3E%3CmxGeometry%20width%3D%2250%22%20height%3D%2250%22%20relative%3D%221%22%20as%3D%22geometry%22%3E%3CmxPoint%20x%3D%22-340%22%20y%3D%22330.02%22%20as%3D%22sourcePoint%22%2F%3E%3CmxPoint%20x%3D%22-200.20000000000005%22%20y%3D%22330%22%20as%3D%22targetPoint%22%2F%3E%3C%2FmxGeometry%3E%3C%2FmxCell%3E%3C%2Froot%3E%3C%2FmxGraphModel%3E&lt;/span&gt;" style="text;html=1;align=center;verticalAlign=middle;resizable=0;points=[];autosize=1;strokeColor=none;" vertex="1" parent="1">
          <mxGeometry x="-510" y="210" width="100" height="40" as="geometry" />
        </mxCell>
        <mxCell id="6Z9NZlcsInPV9KQ9pKIT-19" value="addToTimetable&lt;br&gt;(priority)&lt;span style=&quot;color: rgba(0 , 0 , 0 , 0) ; font-family: monospace ; font-size: 0px&quot;&gt;%3CmxGraphModel%3E%3Croot%3E%3CmxCell%20id%3D%220%22%2F%3E%3CmxCell%20id%3D%221%22%20parent%3D%220%22%2F%3E%3CmxCell%20id%3D%222%22%20value%3D%22%22%20style%3D%22endArrow%3Dnone%3Bhtml%3D1%3BentryX%3D-0.02%3BentryY%3D0.222%3BentryDx%3D0%3BentryDy%3D0%3BentryPerimeter%3D0%3BstartArrow%3Dclassic%3BstartFill%3D1%3BendFill%3D0%3Bdashed%3D1%3B%22%20edge%3D%221%22%20parent%3D%221%22%3E%3CmxGeometry%20width%3D%2250%22%20height%3D%2250%22%20relative%3D%221%22%20as%3D%22geometry%22%3E%3CmxPoint%20x%3D%22-340%22%20y%3D%22330.02%22%20as%3D%22sourcePoint%22%2F%3E%3CmxPoint%20x%3D%22-200.20000000000005%22%20y%3D%22330%22%20as%3D%22targetPoint%22%2F%3E%3C%2FmxGeometry%3E%3C%2FmxCell%3E%3C%2Froot%3E%3C%2FmxGraphModel%3E&lt;/span&gt;" style="text;html=1;align=center;verticalAlign=middle;resizable=0;points=[];autosize=1;strokeColor=none;" vertex="1" parent="1">
          <mxGeometry x="-510" y="270" width="100" height="40" as="geometry" />
        </mxCell>
        <mxCell id="6Z9NZlcsInPV9KQ9pKIT-20" value="select set reminder" style="text;html=1;align=center;verticalAlign=middle;resizable=0;points=[];autosize=1;strokeColor=none;" vertex="1" parent="1">
          <mxGeometry x="-680" y="420" width="120" height="20" as="geometry" />
        </mxCell>
        <mxCell id="6Z9NZlcsInPV9KQ9pKIT-21" value="loop" style="shape=umlFrame;whiteSpace=wrap;html=1;fillColor=#FFFFFF;" vertex="1" parent="1">
          <mxGeometry x="-760" y="320" width="400" height="80" as="geometry" />
        </mxCell>
        <mxCell id="6Z9NZlcsInPV9KQ9pKIT-22" value="" style="endArrow=classic;html=1;" edge="1" parent="1">
          <mxGeometry width="50" height="50" relative="1" as="geometry">
            <mxPoint x="-685" y="360" as="sourcePoint" />
            <mxPoint x="-544" y="360" as="targetPoint" />
          </mxGeometry>
        </mxCell>
        <mxCell id="6Z9NZlcsInPV9KQ9pKIT-23" value="" style="endArrow=classic;html=1;" edge="1" parent="1">
          <mxGeometry width="50" height="50" relative="1" as="geometry">
            <mxPoint x="-685" y="470" as="sourcePoint" />
            <mxPoint x="-544" y="470" as="targetPoint" />
          </mxGeometry>
        </mxCell>
        <mxCell id="6Z9NZlcsInPV9KQ9pKIT-24" value="" style="endArrow=classic;html=1;" edge="1" parent="1">
          <mxGeometry width="50" height="50" relative="1" as="geometry">
            <mxPoint x="-260" y="330" as="sourcePoint" />
            <mxPoint x="-119" y="330" as="targetPoint" />
          </mxGeometry>
        </mxCell>
        <mxCell id="6Z9NZlcsInPV9KQ9pKIT-25" value="" style="endArrow=classic;html=1;" edge="1" parent="1">
          <mxGeometry width="50" height="50" relative="1" as="geometry">
            <mxPoint x="-250" y="340" as="sourcePoint" />
            <mxPoint x="-109" y="340" as="targetPoint" />
          </mxGeometry>
        </mxCell>
        <mxCell id="6Z9NZlcsInPV9KQ9pKIT-26" value="" style="endArrow=classic;html=1;" edge="1" parent="1">
          <mxGeometry width="50" height="50" relative="1" as="geometry">
            <mxPoint x="-240" y="350" as="sourcePoint" />
            <mxPoint x="-99" y="350" as="targetPoint" />
          </mxGeometry>
        </mxCell>
        <mxCell id="6Z9NZlcsInPV9KQ9pKIT-27" value="select colour" style="text;html=1;align=center;verticalAlign=middle;resizable=0;points=[];autosize=1;strokeColor=none;" vertex="1" parent="1">
          <mxGeometry x="-650" y="330" width="80" height="20" as="geometry" />
        </mxCell>
        <mxCell id="6Z9NZlcsInPV9KQ9pKIT-28" value="set colour" style="text;html=1;align=center;verticalAlign=middle;resizable=0;points=[];autosize=1;strokeColor=none;" vertex="1" parent="1">
          <mxGeometry x="-495" y="345" width="70" height="20" as="geometry" />
        </mxCell>
        <mxCell id="6Z9NZlcsInPV9KQ9pKIT-31" value="" style="html=1;points=[];perimeter=orthogonalPerimeter;fillColor=#FFFFFF;" vertex="1" parent="1">
          <mxGeometry x="-695" y="430" width="10" height="50" as="geometry" />
        </mxCell>
        <mxCell id="6Z9NZlcsInPV9KQ9pKIT-32" value="" style="html=1;points=[];perimeter=orthogonalPerimeter;fillColor=#FFFFFF;" vertex="1" parent="1">
          <mxGeometry x="-545" y="350" width="10" height="30" as="geometry" />
        </mxCell>
        <mxCell id="6Z9NZlcsInPV9KQ9pKIT-33" value="" style="html=1;points=[];perimeter=orthogonalPerimeter;fillColor=#FFFFFF;" vertex="1" parent="1">
          <mxGeometry x="-695" y="345" width="10" height="30" as="geometry" />
        </mxCell>
        <mxCell id="6Z9NZlcsInPV9KQ9pKIT-34" value="" style="html=1;points=[];perimeter=orthogonalPerimeter;fillColor=#FFFFFF;" vertex="1" parent="1">
          <mxGeometry x="-695" y="270" width="10" height="30" as="geometry" />
        </mxCell>
        <mxCell id="6Z9NZlcsInPV9KQ9pKIT-35" value="" style="html=1;points=[];perimeter=orthogonalPerimeter;fillColor=#FFFFFF;" vertex="1" parent="1">
          <mxGeometry x="-545" y="430" width="10" height="70" as="geometry" />
        </mxCell>
        <mxCell id="6Z9NZlcsInPV9KQ9pKIT-36" value="" style="html=1;points=[];perimeter=orthogonalPerimeter;fillColor=#FFFFFF;" vertex="1" parent="1">
          <mxGeometry x="-190" y="290" width="10" height="30" as="geometry" />
        </mxCell>
        <mxCell id="6Z9NZlcsInPV9KQ9pKIT-37" value="" style="html=1;points=[];perimeter=orthogonalPerimeter;fillColor=#FFFFFF;" vertex="1" parent="1">
          <mxGeometry x="-180" y="300" width="10" height="30" as="geometry" />
        </mxCell>
        <mxCell id="6Z9NZlcsInPV9KQ9pKIT-38" value="" style="html=1;points=[];perimeter=orthogonalPerimeter;fillColor=#FFFFFF;" vertex="1" parent="1">
          <mxGeometry x="-545" y="275" width="10" height="35" as="geometry" />
        </mxCell>
        <mxCell id="6Z9NZlcsInPV9KQ9pKIT-39" value="enter due date" style="text;html=1;align=center;verticalAlign=middle;resizable=0;points=[];autosize=1;strokeColor=none;" vertex="1" parent="1">
          <mxGeometry x="-665" y="450" width="90" height="20" as="geometry" />
        </mxCell>
      </root>
    </mxGraphModel>
  </diagram>
</mxfile>
